<svg xmlns="http://www.w3.org/2000/svg" version="1.1" xmlns:xlink="http://www.w3.org/1999/xlink" xmlns:svgjs="http://svgjs.dev/svgjs" width="100%" height="100%" viewBox="0 0 1000 600"><rect width="1000" height="600" x="0" y="0" fill="#ffffff"/><g><rect width="333.3333333333333" height="333.3333333333333" rx="13.333333333333334" ry="13.333333333333334" y="427.2509346416572" fill="#dbb700" transform="matrix(0.3086201032932949,0,0,0.3086201032932949,0,116.70508494104234)" x="405.02871704101557"/><path d="M610.4884755807896 668.9176108475546L487.9884773712126 668.9176108475546L487.9884773712126 642.0210595165285L606.9539928738279 642.222208938876Q616.0631881429895 642.222208938876 620.9195099110914 637.9980710695801Q625.8045673109573 633.7451975685204 625.8045673109573 624.2337034546641L625.8045673109573 624.2337034546641Q625.8045673109573 614.7222093408076 620.9195099110914 610.4693358397479Q616.0631881429895 606.2164623386883 606.9539928738279 606.2164623386883L606.9539928738279 606.2164623386883L532.9022698182143 606.2164623386883Q509.9425000388449 606.2164623386883 497.2126151674298 595.1532441095802Q484.4827302960147 584.0900258804724 484.4827302960147 562.5670376892988L484.4827302960147 562.5670376892988Q484.4827302960147 541.0440494981251 497.2126151674298 529.9808312690172Q509.9425000388449 518.9176130399092 532.9022698182143 518.9176130399092L532.9022698182143 518.9176130399092L649.1666359350215 518.9176130399092L649.1666359350215 545.8141643709353L536.4080168934122 545.6130149485879Q527.5287066783619 545.6130149485879 522.5574423832045 549.6360033955361Q517.5861780880468 553.6877274742485 517.5861780880468 562.5670376892988L517.5861780880468 562.5670376892988Q517.5861780880468 571.475083536113 522.5574423832045 575.4980719830613Q527.5287066783619 579.5497960617735 536.4080168934122 579.5497960617735L536.4080168934122 579.5497960617735L610.4884755807896 579.5497960617735Q633.448245360159 579.5497960617735 646.1781302315742 590.8141637132288Q658.9080151029893 602.0785313646842 658.9080151029893 624.2337034546641L658.9080151029893 624.2337034546641Q658.9080151029893 646.1589904905326 646.1781302315742 657.5383006690435Q633.448245360159 668.9176108475546 610.4884755807896 668.9176108475546L610.4884755807896 668.9176108475546Z " fill="#2c4566" transform="matrix(0.3086201032932949,0,0,0.3086201032932949,0,116.70508494104234)"/><path d="M947.7011144357699 668.9176108475546L825.2011162261929 668.9176108475546L825.2011162261929 642.0210595165285L944.166631728808 642.222208938876Q953.2758269979696 642.222208938876 958.1321487660717 637.9980710695801Q963.0172061659374 633.7451975685204 963.0172061659374 624.2337034546641L963.0172061659374 624.2337034546641Q963.0172061659374 614.7222093408076 958.1321487660717 610.4693358397479Q953.2758269979696 606.2164623386883 944.166631728808 606.2164623386883L944.166631728808 606.2164623386883L870.1149086731947 606.2164623386883Q847.1551388938252 606.2164623386883 834.4252540224101 595.1532441095802Q821.695369150995 584.0900258804724 821.695369150995 562.5670376892988L821.695369150995 562.5670376892988Q821.695369150995 541.0440494981251 834.4252540224101 529.9808312690172Q847.1551388938252 518.9176130399092 870.1149086731947 518.9176130399092L870.1149086731947 518.9176130399092L986.3792747900017 518.9176130399092L986.3792747900017 545.8141643709353L873.6206557483926 545.6130149485879Q864.7413455333423 545.6130149485879 859.7700812381846 549.6360033955361Q854.7988169430271 553.6877274742485 854.7988169430271 562.5670376892988L854.7988169430271 562.5670376892988Q854.7988169430271 571.475083536113 859.7700812381846 575.4980719830613Q864.7413455333423 579.5497960617735 873.6206557483926 579.5497960617735L873.6206557483926 579.5497960617735L947.7011144357699 579.5497960617735Q970.6608842151394 579.5497960617735 983.3907690865543 590.8141637132288Q996.1206539579695 602.0785313646842 996.1206539579695 624.2337034546641L996.1206539579695 624.2337034546641Q996.1206539579695 646.1589904905326 983.3907690865543 657.5383006690435Q970.6608842151394 668.9176108475546 947.7011144357699 668.9176108475546L947.7011144357699 668.9176108475546ZM1152.0976631725093 668.9176108475546L1068.3045609489282 668.9176108475546Q1040.6034119285127 668.9176108475546 1025.0861707759977 655.1532432326384Q1009.5689296234826 641.3888756177224 1009.5689296234826 614.7222093408076L1009.5689296234826 614.7222093408076Q1009.5689296234826 587.8256580097815 1025.0861707759977 574.0612903948655Q1040.6034119285127 560.2969227799493 1068.3045609489282 560.2969227799493L1068.3045609489282 560.2969227799493L1120.0286981239783 560.2969227799493Q1138.2470886623018 560.2969227799493 1147.8735253032137 568.8888766773604Q1157.499961944126 577.4808305747716 1157.499961944126 593.4003705719814L1157.499961944126 593.4003705719814Q1157.499961944126 625.8716344652072 1120.0286981239783 625.8716344652072L1120.0286981239783 625.8716344652072L1041.8390440943608 625.8716344652072Q1046.1781244907124 645.1245077470315 1068.3045609489282 645.1245077470315L1068.3045609489282 645.1245077470315L1152.0976631725093 645.1245077470315L1152.0976631725093 668.9176108475546ZM1118.5919165357827 584.0900258804724L1068.3045609489282 584.0900258804724Q1047.011457811866 584.0900258804724 1042.0401935167083 602.0785313646842L1042.0401935167083 602.0785313646842L1118.5919165357827 602.0785313646842Q1122.7298475097864 602.0785313646842 1125.114904946192 599.6072670329874Q1127.499962382597 597.1360027012905 1127.499962382597 592.7681866731751L1127.499962382597 592.7681866731751Q1127.499962382597 584.0900258804724 1118.5919165357827 584.0900258804724L1118.5919165357827 584.0900258804724ZM1206.120650888673 667.8831281040535L1176.120651327144 667.8831281040535L1176.120651327144 561.3314055234503L1268.9942131881226 561.3314055234503Q1287.212603726446 561.3314055234503 1295.6034082015099 570.3256582655562Q1303.9654770448092 579.3199110076622 1303.9654770448092 594.0325544707877L1303.9654770448092 594.0325544707877L1303.9654770448092 667.8831281040535L1273.9654774832802 667.8831281040535L1273.9654774832802 597.5383015459855Q1273.9654774832802 585.1245086239734 1261.5516845612683 585.1245086239734L1261.5516845612683 585.1245086239734L1206.120650888673 585.1245086239734L1206.120650888673 667.8831281040535ZM1355.6896142198593 667.8831281040535L1325.6896146583304 667.8831281040535L1325.6896146583304 561.3314055234503L1418.5919121510733 561.3314055234503Q1436.8103026893964 561.3314055234503 1445.1723715326962 570.3256582655562Q1453.56317600776 579.3199110076622 1453.56317600776 594.0325544707877L1453.56317600776 594.0325544707877L1453.56317600776 667.8831281040535L1423.563176446231 667.8831281040535L1423.563176446231 597.5383015459855Q1423.563176446231 585.1245086239734 1411.1493835242186 585.1245086239734L1411.1493835242186 585.1245086239734L1355.6896142198593 585.1245086239734L1355.6896142198593 667.8831281040535ZM1613.0746679292615 667.8831281040535L1503.6206465405025 667.8831281040535Q1486.8677732221395 667.8831281040535 1477.9597273753252 659.406116733698Q1469.080417160275 650.9291053633427 1469.080417160275 635.1819791567162L1469.080417160275 635.1819791567162Q1469.080417160275 619.6647380042012 1477.9597273753252 611.1877266338457Q1486.8677732221395 602.7107152634904 1503.6206465405025 602.7107152634904L1503.6206465405025 602.7107152634904L1583.0746683677326 602.7107152634904L1583.0746683677326 597.7394509683328Q1583.0746683677326 585.1245086239734 1570.6608754457206 585.1245086239734L1570.6608754457206 585.1245086239734L1482.9309916704829 585.1245086239734L1482.9309916704829 561.3314055234503L1578.534438549034 561.3314055234503Q1597.356277354399 561.3314055234503 1605.2011048259483 569.9233594208614Q1613.0746679292615 578.5153133182724 1613.0746679292615 594.0325544707877L1613.0746679292615 594.0325544707877L1613.0746679292615 667.8831281040535ZM1508.9942096803552 644.0900250035305L1508.9942096803552 644.0900250035305L1583.0746683677326 644.0900250035305L1583.0746683677326 626.5038183640135L1508.9942096803552 626.5038183640135Q1505.0861637604626 626.5038183640135 1502.902255746405 628.8888758004185Q1500.7183477323474 631.2739332368236 1500.7183477323474 635.1819791567162L1500.7183477323474 635.1819791567162Q1500.7183477323474 639.1187607083729 1502.902255746405 641.6187606718337Q1505.0861637604626 644.0900250035305 1508.9942096803552 644.0900250035305ZM1809.4252397721043 667.8831281040535L1839.4252393336333 667.8831281040535L1839.4252393336333 519.9520957834102L1809.4252397721043 519.9520957834102L1809.4252397721043 667.8831281040535ZM1762.8735163145593 667.8831281040535L1834.2528256161286 667.8831281040535L1834.2528256161286 644.0900250035305L1762.8735163145593 644.0900250035305Q1749.4252406490464 644.0900250035305 1742.2700683398311 636.7337032719678Q1735.14363166238 629.406117172169 1735.14363166238 614.7222093408076L1735.14363166238 614.7222093408076Q1735.14363166238 599.8084164553349 1742.2700683398311 592.4808303555361Q1749.4252406490464 585.1245086239734 1762.8735163145593 585.1245086239734L1762.8735163145593 585.1245086239734L1832.1838601291265 585.1245086239734L1832.1838601291265 561.3314055234503L1762.8735163145593 561.3314055234503Q1735.14363166238 561.3314055234503 1719.6263905098644 574.9808306113108Q1704.10914935735 588.6302556991712 1704.10914935735 614.7222093408076L1704.10914935735 614.7222093408076Q1704.10914935735 640.5842779283327 1719.6263905098644 654.2337030161931Q1735.14363166238 667.8831281040535 1762.8735163145593 667.8831281040535L1762.8735163145593 667.8831281040535ZM1955.086157183398 668.9176108475546L1916.8102956738612 668.9176108475546Q1889.0804110216818 668.9176108475546 1873.5631698691664 655.1532432326384Q1858.0459287166514 641.3888756177224 1858.0459287166514 614.7222093408076L1858.0459287166514 614.7222093408076Q1858.0459287166514 587.8256580097815 1873.5631698691664 574.0612903948655Q1889.0804110216818 560.2969227799493 1916.8102956738612 560.2969227799493L1916.8102956738612 560.2969227799493L1955.086157183398 560.2969227799493Q1982.7873062038138 560.2969227799493 1998.3045473563293 574.0612903948655Q2013.8217885088438 587.8256580097815 2013.8217885088438 614.7222093408076L2013.8217885088438 614.7222093408076Q2013.8217885088438 641.3888756177224 1998.3045473563293 655.1532432326384Q1982.7873062038138 668.9176108475546 1955.086157183398 668.9176108475546L1955.086157183398 668.9176108475546ZM1916.8102956738612 645.1245077470315L1916.8102956738612 645.1245077470315L1955.086157183398 645.1245077470315Q1968.5344328489114 645.1245077470315 1975.6608695263626 637.6819791201771Q1982.7873062038138 630.2394504933226 1982.7873062038138 614.7222093408076L1982.7873062038138 614.7222093408076Q1982.7873062038138 598.9750831341813 1975.6608695263626 591.5325545073268Q1968.5344328489114 584.0900258804724 1955.086157183398 584.0900258804724L1955.086157183398 584.0900258804724L1916.8102956738612 584.0900258804724Q1903.3620200083483 584.0900258804724 1896.2068476991326 591.5325545073268Q1889.0804110216818 598.9750831341813 1889.0804110216818 614.7222093408076L1889.0804110216818 614.7222093408076Q1889.0804110216818 630.2394504933226 1896.2068476991326 637.6819791201771Q1903.3620200083483 645.1245077470315 1916.8102956738612 645.1245077470315ZM2236.6666128380184 667.681978681706L2107.9597181674353 667.8831281040535L2107.9597181674353 520.3543946281051L2232.5286818640143 519.9520957834102Q2257.155118285691 519.9520957834102 2269.0516698359525 530.1819806913645Q2280.948221386214 540.4406012310828 2280.948221386214 560.9291066787555L2280.948221386214 560.9291066787555Q2280.948221386214 581.3888764946643 2267.2700606665903 590.9291062402846L2267.2700606665903 590.9291062402846Q2276.3792559357516 595.8716349036782 2280.718336332103 604.0612899563945Q2285.086152360218 612.2222093773468 2285.086152360218 625.0670367758177L2285.086152360218 625.0670367758177Q2285.086152360218 645.9578410681851 2273.1896008099566 656.8199098749457Q2261.293049259695 667.681978681706 2236.6666128380184 667.681978681706L2236.6666128380184 667.681978681706ZM2228.591900312358 546.4463482697415L2228.591900312358 546.4463482697415L2141.0631659594674 546.4463482697415L2141.0631659594674 579.5497960617735L2228.591900312358 579.5497960617735Q2247.4137391177237 579.5497960617735 2247.4137391177237 562.5670376892988L2247.4137391177237 562.5670376892988Q2247.4137391177237 546.4463482697415 2228.591900312358 546.4463482697415ZM2232.7298312863613 606.0153129163408L2232.7298312863613 606.0153129163408L2141.0631659594674 606.0153129163408L2141.0631659594674 641.1877261953749L2232.7298312863613 641.1877261953749Q2251.551670091728 641.1877261953749 2251.551670091728 623.4003701335104L2251.551670091728 623.4003701335104Q2251.551670091728 606.0153129163408 2232.7298312863613 606.0153129163408ZM2335.1436228929615 667.8831281040535L2304.7413244867375 667.8831281040535L2304.7413244867375 561.3314055234503L2386.235576169205 561.3314055234503Q2404.2528172851808 561.3314055234503 2412.729828655536 570.3256582655562Q2421.2068400258913 579.3199110076622 2421.2068400258913 594.0325544707877L2421.2068400258913 594.0325544707877L2421.2068400258913 616.1589909290034L2390.8045416196683 616.1589909290034L2390.8045416196683 597.7394509683328Q2390.8045416196683 585.3256580463209 2378.390748697656 585.3256580463209L2378.390748697656 585.3256580463209L2335.1436228929615 585.3256580463209L2335.1436228929615 667.8831281040535ZM2575.5459182298882 667.8831281040535L2466.1206324728937 667.8831281040535Q2449.339023522766 667.8831281040535 2440.459713307716 659.406116733698Q2431.5516674609016 650.9291053633427 2431.5516674609016 635.1819791567162L2431.5516674609016 635.1819791567162Q2431.5516674609016 619.6647380042012 2440.459713307716 611.1877266338457Q2449.339023522766 602.7107152634904 2466.1206324728937 602.7107152634904L2466.1206324728937 602.7107152634904L2545.5459186683593 602.7107152634904L2545.5459186683593 597.7394509683328Q2545.5459186683593 585.1245086239734 2533.132125746347 585.1245086239734L2533.132125746347 585.1245086239734L2445.430977602874 585.1245086239734L2445.430977602874 561.3314055234503L2541.00568884966 561.3314055234503Q2559.8275276550257 561.3314055234503 2567.701090758339 569.9233594208614Q2575.5459182298882 578.5153133182724 2575.5459182298882 594.0325544707877L2575.5459182298882 594.0325544707877L2575.5459182298882 667.8831281040535ZM2471.494195612746 644.0900250035305L2471.494195612746 644.0900250035305L2545.5459186683593 644.0900250035305L2545.5459186683593 626.5038183640135L2471.494195612746 626.5038183640135Q2467.5574140610897 626.5038183640135 2465.3735060470317 628.8888758004185Q2463.2183336647377 631.2739332368236 2463.2183336647377 635.1819791567162L2463.2183336647377 635.1819791567162Q2463.2183336647377 639.1187607083729 2465.3735060470317 641.6187606718337Q2467.5574140610897 644.0900250035305 2471.494195612746 644.0900250035305ZM2701.5516635146632 668.9176108475546L2594.798791511713 668.9176108475546L2594.798791511713 645.1245077470315L2696.178100374811 645.1245077470315Q2704.8562611675134 645.1245077470315 2704.8562611675134 635.4118642108277L2704.8562611675134 635.4118642108277Q2704.8562611675134 625.8716344652072 2696.178100374811 625.8716344652072L2696.178100374811 625.8716344652072L2630.603388689553 625.8716344652072Q2612.1838487288824 625.8716344652072 2602.672354615026 617.5095656219074Q2593.1321248694057 609.1187611468439 2593.1321248694057 593.4003705719814L2593.1321248694057 593.4003705719814Q2593.1321248694057 577.4808305747716 2602.758561510318 568.8888766773604Q2612.3849981512294 560.2969227799493 2630.603388689553 560.2969227799493L2630.603388689553 560.2969227799493L2724.942467770491 560.2969227799493L2724.942467770491 584.0900258804724L2632.040170277749 584.0900258804724Q2623.1321244309347 584.0900258804724 2623.1321244309347 592.7681866731751L2623.1321244309347 592.7681866731751Q2623.1321244309347 597.1360027012905 2625.632124394395 599.6072670329874Q2628.103388726092 602.0785313646842 2632.040170277749 602.0785313646842L2632.040170277749 602.0785313646842L2701.5516635146632 602.0785313646842Q2717.7010885659847 602.0785313646842 2726.293042463396 610.4693358397479Q2734.8562607290423 618.8601403148117 2734.8562607290423 634.7796803120215L2734.8562607290423 634.7796803120215Q2734.8562607290423 650.9291053633427 2726.17809993634 659.9233581054485Q2717.4999391436368 668.9176108475546 2701.5516635146632 668.9176108475546L2701.5516635146632 668.9176108475546ZM2782.442466930089 667.8831281040535L2752.44246736856 667.8831281040535L2752.44246736856 561.3314055234503L2782.442466930089 561.3314055234503L2782.442466930089 667.8831281040535ZM2782.6723519842 543.7451988839332L2752.241317946212 543.7451988839332L2752.241317946212 520.3543946281051L2782.6723519842 520.3543946281051L2782.6723519842 543.7451988839332ZM2835.2010868486395 667.8831281040535L2805.2010872871106 667.8831281040535L2805.2010872871106 519.9520957834102L2835.2010868486395 519.9520957834102L2835.2010868486395 667.8831281040535Z " fill="#2b663d" transform="matrix(0.3086201032932949,0,0,0.3086201032932949,0,116.70508494104234)"/></g></svg>